<?xml version="1.0" encoding="utf-8"?>
<!-- Generator: Adobe Illustrator 27.5.0, SVG Export Plug-In . SVG Version: 6.00 Build 0)  -->
<svg version="1.1" id="Layer_1" xmlns="http://www.w3.org/2000/svg" xmlns:xlink="http://www.w3.org/1999/xlink" x="0px" y="0px"
	 viewBox="0 0 175 100" style="enable-background:new 0 0 175 100;" xml:space="preserve">
<g>
	<defs>
		<rect id="SVGID_1_" width="175" height="100"/>
	</defs>
	<clipPath id="SVGID_00000121964332234397386440000016674598654266147466_">
		<use xlink:href="#SVGID_1_"  style="overflow:visible;"/>
	</clipPath>
	
		<rect style="clip-path:url(#SVGID_00000121964332234397386440000016674598654266147466_);fill:#1C75BC;" width="175" height="100"/>
	
		<radialGradient id="SVGID_00000154395852452935996360000005392051059188607667_" cx="87.4654" cy="50" r="102.6915" gradientTransform="matrix(1.0029 0 0 0.6823 -0.2191 15.8827)" gradientUnits="userSpaceOnUse">
		<stop  offset="0" style="stop-color:#FFFFFF"/>
		<stop  offset="1" style="stop-color:#000000"/>
	</radialGradient>
	
		<rect style="clip-path:url(#SVGID_00000121964332234397386440000016674598654266147466_);fill:url(#SVGID_00000154395852452935996360000005392051059188607667_);" width="175" height="100"/>
	<g style="clip-path:url(#SVGID_00000121964332234397386440000016674598654266147466_);">
		<g>
			<g>
				<polygon style="fill:#FFFFFF;" points="35.354,8.982 87.151,50.117 87.338,49.883 35.542,8.749 				"/>
			</g>
			<g>
				<polygon style="fill:#FFFFFF;" points="17.168,30.198 87.203,50.144 87.286,49.856 17.25,29.91 				"/>
			</g>
			<g>
				
					<rect x="3.896" y="54.583" transform="matrix(0.9936 -0.1127 0.1127 0.9936 -5.8796 5.5021)" style="fill:#FFFFFF;" width="83.617" height="0.299"/>
			</g>
			<g>
				<polygon style="fill:#FFFFFF;" points="37.952,80.828 38.112,81.081 87.324,50.126 87.165,49.874 				"/>
			</g>
			<g>
				
					<rect x="52.332" y="72.896" transform="matrix(0.3929 -0.9196 0.9196 0.3929 -20.1862 115.5161)" style="fill:#FFFFFF;" width="50.126" height="0.3"/>
			</g>
			<g>
				
					<rect x="97.094" y="47.856" transform="matrix(0.9121 -0.41 0.41 0.9121 -21.071 46.2155)" style="fill:#FFFFFF;" width="0.299" height="48.783"/>
			</g>
			<g>
				<polygon style="fill:#FFFFFF;" points="87.164,50.126 122.917,72.787 123.078,72.534 87.325,49.874 				"/>
			</g>
			<g>
				
					<rect x="125.574" y="16.58" transform="matrix(0.14 -0.9901 0.9901 0.14 53.2242 172.1627)" style="fill:#FFFFFF;" width="0.298" height="77.723"/>
			</g>
			<g>
				
					<rect x="67.973" y="26.55" transform="matrix(0.1875 -0.9823 0.9823 0.1875 48.2765 111.7621)" style="fill:#FFFFFF;" width="47.443" height="0.3"/>
			</g>
			<g>
				<polygon style="fill:#FFFFFF;" points="87.152,49.882 87.337,50.118 128.274,18.31 128.09,18.074 				"/>
			</g>
			<g>
				
					<rect x="85.339" y="37.854" transform="matrix(0.95 -0.3121 0.3121 0.95 -5.664 40.6185)" style="fill:#FFFFFF;" width="77.443" height="0.299"/>
			</g>
		</g>
		<g>
			<g>
				<polygon style="fill:#FFFFFF;" points="56.686,12.275 87.127,50.093 87.361,49.907 56.92,12.088 				"/>
			</g>
			<g>
				<polygon style="fill:#FFFFFF;" points="40.228,24.555 87.172,50.131 87.317,49.869 40.372,24.292 				"/>
			</g>
			<g>
				<polygon style="fill:#FFFFFF;" points="26.922,46.174 87.234,50.149 87.255,49.851 26.942,45.876 				"/>
			</g>
			<g>
				<polygon style="fill:#FFFFFF;" points="37.901,67.238 38.001,67.52 87.294,50.141 87.194,49.859 				"/>
			</g>
			<g>
				<polygon style="fill:#FFFFFF;" points="21.116,62.592 21.173,62.886 87.273,50.146 87.216,49.853 				"/>
			</g>
			<g>
				
					<rect x="58.034" y="64.775" transform="matrix(0.586 -0.8103 0.8103 0.586 -20.9583 88.8266)" style="fill:#FFFFFF;" width="36.836" height="0.298"/>
			</g>
			<g>
				
					<rect x="88.244" y="49.968" transform="matrix(0.9984 -0.0559 0.0559 0.9984 -3.8065 5.0547)" style="fill:#FFFFFF;" width="0.3" height="41.116"/>
			</g>
			<g>
				<polygon style="fill:#FFFFFF;" points="87.146,50.113 128.227,85.518 128.424,85.291 87.342,49.887 				"/>
			</g>
			<g>
				<polygon style="fill:#FFFFFF;" points="87.191,50.14 140.563,70.339 140.669,70.059 87.297,49.86 				"/>
			</g>
			<g>
				
					<rect x="77.187" y="35.496" transform="matrix(0.3406 -0.9402 0.9402 0.3406 27.4496 110.4318)" style="fill:#FFFFFF;" width="30.544" height="0.299"/>
			</g>
			<g>
				<polygon style="fill:#FFFFFF;" points="87.182,49.864 87.307,50.136 137.427,27.313 137.302,27.041 				"/>
			</g>
			<g>
				<polygon style="fill:#FFFFFF;" points="87.229,49.851 87.258,50.149 143.902,44.826 143.875,44.528 				"/>
			</g>
		</g>
		<g>
			<g>
				
					<rect x="12.195" y="51.143" transform="matrix(0.9994 -0.0344 0.0344 0.9994 -1.737 1.7431)" style="fill:#FFFFFF;" width="75.071" height="0.299"/>
			</g>
			<g>
				<polygon style="fill:#FFFFFF;" points="46.229,34.351 87.19,50.139 87.298,49.86 46.338,34.073 				"/>
			</g>
			<g>
				
					<rect x="59.007" y="21.224" transform="matrix(0.0242 -0.9997 0.9997 0.0242 8.4194 107.2656)" style="fill:#FFFFFF;" width="0.299" height="56.191"/>
			</g>
			<g>
				
					<rect x="79.066" y="19.51" transform="matrix(0.8703 -0.4925 0.4925 0.8703 -7.3641 43.6578)" style="fill:#FFFFFF;" width="0.299" height="32.604"/>
			</g>
			<g>
				<polygon style="fill:#FFFFFF;" points="87.132,49.901 87.357,50.099 120.352,12.782 120.126,12.584 				"/>
			</g>
			<g>
				
					<rect x="118.545" y="20.013" transform="matrix(0.0476 -0.9989 0.9989 0.0476 61.6009 167.6064)" style="fill:#FFFFFF;" width="0.3" height="62.972"/>
			</g>
			<g>
				<polygon style="fill:#FFFFFF;" points="84.653,88.536 84.953,88.555 87.394,50.009 87.095,49.991 				"/>
			</g>
			<g>
				
					<rect x="52.933" y="61.373" transform="matrix(0.7971 -0.6038 0.6038 0.7971 -22.5368 55.9726)" style="fill:#FFFFFF;" width="38.182" height="0.3"/>
			</g>
			<g>
				<polygon style="fill:#FFFFFF;" points="87.123,50.088 108.146,78.878 108.39,78.702 87.365,49.912 				"/>
			</g>
		</g>
	</g>
	<g style="clip-path:url(#SVGID_00000121964332234397386440000016674598654266147466_);">
		<g>
			<polygon style="fill:#FFFFFF;" points="87.284,49.969 46.896,0 46.768,0 87.205,50.031 			"/>
		</g>
		<g>
			<polygon style="fill:#FFFFFF;" points="87.281,49.966 42.373,0 42.239,0 87.206,50.033 			"/>
		</g>
		<g>
			<polygon style="fill:#FFFFFF;" points="87.28,49.964 37.405,0 37.264,0 87.208,50.035 			"/>
		</g>
		<g>
			<polygon style="fill:#FFFFFF;" points="87.278,49.963 31.889,0 31.74,0 87.21,50.037 			"/>
		</g>
		<g>
			<polygon style="fill:#FFFFFF;" points="87.276,49.961 25.696,0 25.538,0 87.212,50.039 			"/>
		</g>
		<g>
			<polygon style="fill:#FFFFFF;" points="87.274,49.959 18.649,0 18.48,0 87.215,50.04 			"/>
		</g>
		<g>
			<polygon style="fill:#FFFFFF;" points="87.272,49.958 10.515,0 10.332,0 87.217,50.042 			"/>
		</g>
		<g>
			<polygon style="fill:#FFFFFF;" points="87.27,49.956 0.959,0 0.76,0 87.219,50.043 			"/>
		</g>
		<g>
			<polygon style="fill:#FFFFFF;" points="87.268,49.955 0,5.361 0,5.473 87.221,50.044 			"/>
		</g>
		<g>
			<polygon style="fill:#FFFFFF;" points="87.265,49.954 0,10.968 0,11.079 87.223,50.045 			"/>
		</g>
		<g>
			<polygon style="fill:#FFFFFF;" points="87.262,49.953 0,16.318 0,16.425 87.226,50.046 			"/>
		</g>
		<g>
			<polygon style="fill:#FFFFFF;" points="87.26,49.953 0,21.455 0,21.56 87.229,50.047 			"/>
		</g>
		<g>
			<polygon style="fill:#FFFFFF;" points="87.258,49.952 0,26.419 0,26.522 87.23,50.048 			"/>
		</g>
		<g>
			<polygon style="fill:#FFFFFF;" points="87.255,49.951 0,31.244 0,31.346 87.234,50.049 			"/>
		</g>
		<g>
			<polygon style="fill:#FFFFFF;" points="87.252,49.95 0,35.96 0,36.062 87.236,50.049 			"/>
		</g>
		<g>
			<polygon style="fill:#FFFFFF;" points="87.25,49.95 0,40.599 0,40.699 87.239,50.049 			"/>
		</g>
		<g>
			
				<rect x="43.572" y="3.93" transform="matrix(0.0545 -0.9985 0.9985 0.0545 -6.3031 88.5777)" style="fill:#FFFFFF;" width="0.1" height="87.374"/>
		</g>
		<g>
			<polygon style="fill:#FFFFFF;" points="87.244,49.95 0,49.745 0,49.844 87.244,50.05 			"/>
		</g>
		<g>
			<polygon style="fill:#FFFFFF;" points="87.241,49.95 0,54.303 0,54.403 87.247,50.05 			"/>
		</g>
		<g>
			<polygon style="fill:#FFFFFF;" points="87.227,49.953 0,81.929 0,82.035 87.262,50.046 			"/>
		</g>
		<g>
			<polygon style="fill:#FFFFFF;" points="0.084,87.168 0.123,87.26 87.264,50.045 87.224,49.954 			"/>
		</g>
		<g>
			<polygon style="fill:#FFFFFF;" points="2.154,91.666 2.198,91.756 87.267,50.044 87.222,49.955 			"/>
		</g>
		<g>
			<polygon style="fill:#FFFFFF;" points="4.458,96.05 4.507,96.137 87.269,50.043 87.22,49.956 			"/>
		</g>
		<g>
			<polygon style="fill:#FFFFFF;" points="87.217,49.958 7.477,100 7.665,100 87.271,50.042 			"/>
		</g>
		<g>
			<polygon style="fill:#FFFFFF;" points="87.215,49.959 16.034,100 16.208,100 87.273,50.041 			"/>
		</g>
		<g>
			<polygon style="fill:#FFFFFF;" points="87.213,49.96 23.407,100 23.569,100 87.275,50.039 			"/>
		</g>
		<g>
			<polygon style="fill:#FFFFFF;" points="87.211,49.962 29.858,100 30.01,100 87.277,50.038 			"/>
		</g>
		<g>
			<polygon style="fill:#FFFFFF;" points="87.21,49.964 35.581,100 35.725,100 87.279,50.035 			"/>
		</g>
		<g>
			<polygon style="fill:#FFFFFF;" points="87.195,50.01 97.792,100 97.895,100 87.293,49.989 			"/>
		</g>
		<g>
			<polygon style="fill:#FFFFFF;" points="87.195,50.012 99.635,100 99.738,100 87.293,49.988 			"/>
		</g>
		<g>
			<polygon style="fill:#FFFFFF;" points="87.196,50.014 101.509,100 101.613,100 87.293,49.986 			"/>
		</g>
		<g>
			<polygon style="fill:#FFFFFF;" points="87.196,50.015 103.422,100 103.526,100 87.292,49.984 			"/>
		</g>
		<g>
			<polygon style="fill:#FFFFFF;" points="87.197,50.017 105.378,100 105.483,100 87.291,49.983 			"/>
		</g>
		<g>
			<polygon style="fill:#FFFFFF;" points="87.198,50.018 107.385,100 107.491,100 87.291,49.981 			"/>
		</g>
		<g>
			<polygon style="fill:#FFFFFF;" points="87.199,50.02 109.447,100 109.557,100 87.29,49.979 			"/>
		</g>
		<g>
			<polygon style="fill:#FFFFFF;" points="87.199,50.021 111.575,100 111.687,100 87.29,49.978 			"/>
		</g>
		<g>
			<polygon style="fill:#FFFFFF;" points="87.2,50.023 113.777,100 113.89,100 87.289,49.977 			"/>
		</g>
		<g>
			<polygon style="fill:#FFFFFF;" points="87.201,50.025 116.063,100 116.177,100 87.288,49.975 			"/>
		</g>
		<g>
			<polygon style="fill:#FFFFFF;" points="87.202,50.026 118.44,100 118.558,100 87.287,49.973 			"/>
		</g>
		<g>
			<polygon style="fill:#FFFFFF;" points="87.203,50.028 120.924,100 121.046,100 87.286,49.972 			"/>
		</g>
		<g>
			<polygon style="fill:#FFFFFF;" points="87.204,50.029 123.528,100 123.652,100 87.285,49.971 			"/>
		</g>
		<g>
			<polygon style="fill:#FFFFFF;" points="87.205,50.031 126.266,100 126.394,100 87.284,49.969 			"/>
		</g>
		<g>
			<polygon style="fill:#FFFFFF;" points="87.206,50.032 129.159,100 129.288,100 87.283,49.967 			"/>
		</g>
		<g>
			<polygon style="fill:#FFFFFF;" points="87.207,50.033 132.225,100 132.359,100 87.281,49.966 			"/>
		</g>
		<g>
			<polygon style="fill:#FFFFFF;" points="87.219,50.043 172.427,100 172.626,100 87.27,49.957 			"/>
		</g>
		<g>
			<polygon style="fill:#FFFFFF;" points="87.269,49.956 87.22,50.044 175,97.478 175,97.363 			"/>
		</g>
		<g>
			<polygon style="fill:#FFFFFF;" points="87.267,49.955 87.222,50.044 175,93.597 175,93.485 			"/>
		</g>
		<g>
			<polygon style="fill:#FFFFFF;" points="87.265,49.954 87.223,50.045 175,89.849 175,89.739 			"/>
		</g>
		<g>
			<polygon style="fill:#FFFFFF;" points="87.263,49.954 87.225,50.046 175,86.217 175,86.11 			"/>
		</g>
		<g>
			<polygon style="fill:#FFFFFF;" points="87.262,49.953 87.227,50.046 175,82.69 175,82.584 			"/>
		</g>
		<g>
			<polygon style="fill:#FFFFFF;" points="87.26,49.953 87.229,50.047 175,79.254 175,79.149 			"/>
		</g>
		<g>
			<polygon style="fill:#FFFFFF;" points="87.259,49.952 87.229,50.048 175,75.896 175,75.793 			"/>
		</g>
		<g>
			<polygon style="fill:#FFFFFF;" points="87.257,49.952 87.232,50.048 175,72.607 175,72.505 			"/>
		</g>
		<g>
			<polygon style="fill:#FFFFFF;" points="87.255,49.951 87.233,50.049 175,69.378 175,69.275 			"/>
		</g>
		<g>
			<polygon style="fill:#FFFFFF;" points="87.253,49.95 87.235,50.049 175,66.197 175,66.097 			"/>
		</g>
		<g>
			<polygon style="fill:#FFFFFF;" points="87.252,49.95 87.236,50.049 175,63.059 175,62.957 			"/>
		</g>
		<g>
			<polygon style="fill:#FFFFFF;" points="87.25,49.95 87.238,50.049 175,59.95 175,59.85 			"/>
		</g>
		<g>
			<polygon style="fill:#FFFFFF;" points="87.248,49.95 87.24,50.05 175,56.867 175,56.769 			"/>
		</g>
		<g>
			<polygon style="fill:#FFFFFF;" points="87.246,49.95 87.242,50.05 175,53.803 175,53.703 			"/>
		</g>
		<g>
			<polygon style="fill:#FFFFFF;" points="87.245,49.95 87.244,50.05 175,50.746 175,50.646 			"/>
		</g>
		<g>
			<polygon style="fill:#FFFFFF;" points="87.246,50.05 175,47.691 175,47.591 87.243,49.95 			"/>
		</g>
		<g>
			<polygon style="fill:#FFFFFF;" points="87.247,50.05 175,44.63 175,44.531 87.241,49.95 			"/>
		</g>
		<g>
			<polygon style="fill:#FFFFFF;" points="87.249,50.05 175,41.557 175,41.457 87.239,49.95 			"/>
		</g>
		<g>
			<polygon style="fill:#FFFFFF;" points="87.251,50.049 175,38.462 175,38.362 87.238,49.95 			"/>
		</g>
		<g>
			<polygon style="fill:#FFFFFF;" points="87.252,50.049 175,35.339 175,35.238 87.236,49.95 			"/>
		</g>
		<g>
			<polygon style="fill:#FFFFFF;" points="87.282,50.033 131.52,0 131.386,0 87.206,49.967 			"/>
		</g>
		<g>
			<polygon style="fill:#FFFFFF;" points="87.283,50.032 128.498,0 128.368,0 87.205,49.968 			"/>
		</g>
		<g>
			<polygon style="fill:#FFFFFF;" points="87.284,50.03 125.644,0 125.519,0 87.204,49.97 			"/>
		</g>
		<g>
			<polygon style="fill:#FFFFFF;" points="87.285,50.028 122.94,0 122.818,0 87.203,49.971 			"/>
		</g>
		<g>
			<polygon style="fill:#FFFFFF;" points="87.286,50.027 120.368,0 120.248,0 87.202,49.972 			"/>
		</g>
		<g>
			<polygon style="fill:#FFFFFF;" points="87.287,50.026 117.91,0 117.794,0 87.201,49.974 			"/>
		</g>
		<g>
			<polygon style="fill:#FFFFFF;" points="87.288,50.024 115.556,0 115.441,0 87.201,49.975 			"/>
		</g>
		<g>
			<polygon style="fill:#FFFFFF;" points="87.289,50.022 113.293,0 113.179,0 87.2,49.977 			"/>
		</g>
		<g>
			<polygon style="fill:#FFFFFF;" points="87.29,50.021 111.11,0 110.999,0 87.199,49.978 			"/>
		</g>
		<g>
			<polygon style="fill:#FFFFFF;" points="87.29,50.02 108.998,0 108.889,0 87.198,49.98 			"/>
		</g>
		<g>
			<polygon style="fill:#FFFFFF;" points="87.291,50.018 106.949,0 106.841,0 87.198,49.981 			"/>
		</g>
		<g>
			<polygon style="fill:#FFFFFF;" points="87.291,50.016 104.956,0 104.849,0 87.196,49.983 			"/>
		</g>
		<g>
			<polygon style="fill:#FFFFFF;" points="87.292,50.015 103.011,0 102.905,0 87.196,49.984 			"/>
		</g>
		<g>
			<polygon style="fill:#FFFFFF;" points="87.293,50.013 101.107,0 101.004,0 87.196,49.987 			"/>
		</g>
		<g>
			<polygon style="fill:#FFFFFF;" points="87.293,50.011 99.241,0 99.138,0 87.195,49.988 			"/>
		</g>
	</g>
	<g style="clip-path:url(#SVGID_00000121964332234397386440000016674598654266147466_);">
		<g>
			<polygon style="fill:#FFFFFF;" points="87.291,49.983 69.72,0 69.613,0 87.196,50.016 			"/>
		</g>
		<g>
			<polygon style="fill:#FFFFFF;" points="87.291,49.981 66.715,0 66.606,0 87.198,50.019 			"/>
		</g>
		<g>
			<polygon style="fill:#FFFFFF;" points="87.29,49.978 63.577,0 63.467,0 87.199,50.021 			"/>
		</g>
		<g>
			<polygon style="fill:#FFFFFF;" points="87.289,49.976 60.28,0 60.167,0 87.2,50.023 			"/>
		</g>
		<g>
			<polygon style="fill:#FFFFFF;" points="87.287,49.974 56.792,0 56.677,0 87.201,50.026 			"/>
		</g>
		<g>
			<polygon style="fill:#FFFFFF;" points="87.286,49.972 53.075,0 52.955,0 87.203,50.028 			"/>
		</g>
		<g>
			<polygon style="fill:#FFFFFF;" points="87.285,49.97 49.083,0 48.957,0 87.204,50.03 			"/>
		</g>
		<g>
			<polygon style="fill:#FFFFFF;" points="87.283,49.967 44.757,0 44.626,0 87.206,50.032 			"/>
		</g>
		<g>
			<polygon style="fill:#FFFFFF;" points="87.281,49.965 40.03,0 39.892,0 87.207,50.034 			"/>
		</g>
		<g>
			<polygon style="fill:#FFFFFF;" points="87.279,49.964 34.811,0 34.666,0 87.21,50.036 			"/>
		</g>
		<g>
			<polygon style="fill:#FFFFFF;" points="87.277,49.961 28.986,0 28.833,0 87.211,50.038 			"/>
		</g>
		<g>
			<polygon style="fill:#FFFFFF;" points="87.275,49.96 22.405,0 22.242,0 87.213,50.039 			"/>
		</g>
		<g>
			<polygon style="fill:#FFFFFF;" points="87.273,49.958 14.867,0 14.691,0 87.216,50.041 			"/>
		</g>
		<g>
			<polygon style="fill:#FFFFFF;" points="87.271,49.958 6.092,0 5.902,0 87.218,50.042 			"/>
		</g>
		<g>
			<polygon style="fill:#FFFFFF;" points="87.269,49.956 0,2.351 0,2.464 87.22,50.043 			"/>
		</g>
		<g>
			<polygon style="fill:#FFFFFF;" points="87.267,49.955 0,8.11 0,8.221 87.222,50.045 			"/>
		</g>
		<g>
			<polygon style="fill:#FFFFFF;" points="87.264,49.954 0,13.587 0,13.695 87.225,50.046 			"/>
		</g>
		<g>
			<polygon style="fill:#FFFFFF;" points="87.261,49.953 0,18.829 0,18.935 87.228,50.046 			"/>
		</g>
		<g>
			<polygon style="fill:#FFFFFF;" points="87.259,49.952 0,23.877 0,23.981 87.229,50.048 			"/>
		</g>
		<g>
			<polygon style="fill:#FFFFFF;" points="87.244,49.95 0,50.919 0,51.02 87.245,50.05 			"/>
		</g>
		<g>
			
				<rect x="-0.088" y="52.715" transform="matrix(0.998 -0.0633 0.0633 0.998 -3.2516 2.8662)" style="fill:#FFFFFF;" width="87.419" height="0.1"/>
		</g>
		<g>
			<polygon style="fill:#FFFFFF;" points="87.238,49.95 0,60.073 0,60.174 87.25,50.049 			"/>
		</g>
		<g>
			<polygon style="fill:#FFFFFF;" points="87.235,49.95 0,64.723 0,64.824 87.252,50.049 			"/>
		</g>
		<g>
			<polygon style="fill:#FFFFFF;" points="87.233,49.951 0,69.455 0,69.557 87.256,50.049 			"/>
		</g>
		<g>
			<polygon style="fill:#FFFFFF;" points="87.23,49.952 0,74.299 0,74.402 87.258,50.048 			"/>
		</g>
		<g>
			<polygon style="fill:#FFFFFF;" points="87.228,49.953 0,79.286 0,79.393 87.261,50.047 			"/>
		</g>
		<g>
			<polygon style="fill:#FFFFFF;" points="87.225,49.953 0,84.455 0,84.563 87.263,50.046 			"/>
		</g>
		<g>
			
				<rect x="-3.214" y="69.652" transform="matrix(0.9095 -0.4157 0.4157 0.9095 -24.9782 24.6647)" style="fill:#FFFFFF;" width="94.749" height="0.1"/>
		</g>
		<g>
			<polygon style="fill:#FFFFFF;" points="87.194,49.993 80.491,100 80.592,100 87.294,50.006 			"/>
		</g>
		<g>
			<polygon style="fill:#FFFFFF;" points="87.194,49.995 82.265,100 82.365,100 87.294,50.005 			"/>
		</g>
		<g>
			<polygon style="fill:#FFFFFF;" points="87.194,49.997 84.027,100 84.127,100 87.294,50.003 			"/>
		</g>
		<g>
			<polygon style="fill:#FFFFFF;" points="87.194,49.999 85.782,100 85.882,100 87.294,50.001 			"/>
		</g>
		<g>
			<polygon style="fill:#FFFFFF;" points="87.194,50 87.532,100 87.633,100 87.294,50 			"/>
		</g>
		<g>
			<polygon style="fill:#FFFFFF;" points="87.194,50.002 89.284,100 89.385,100 87.294,49.998 			"/>
		</g>
		<g>
			
				<rect x="89.118" y="49.926" transform="matrix(0.9971 -0.0767 0.0767 0.9971 -5.4907 7.0613)" style="fill:#FFFFFF;" width="0.1" height="50.148"/>
		</g>
		<g>
			<polygon style="fill:#FFFFFF;" points="87.194,50.005 92.806,100 92.907,100 87.294,49.994 			"/>
		</g>
		<g>
			<polygon style="fill:#FFFFFF;" points="87.194,50.007 94.587,100 94.688,100 87.294,49.993 			"/>
		</g>
		<g>
			<polygon style="fill:#FFFFFF;" points="87.195,50.009 96.385,100 96.485,100 87.294,49.991 			"/>
		</g>
		<g>
			<polygon style="fill:#FFFFFF;" points="87.195,50.01 98.205,100 98.309,100 87.293,49.989 			"/>
		</g>
		<g>
			<polygon style="fill:#FFFFFF;" points="87.195,50.012 100.056,100 100.157,100 87.293,49.987 			"/>
		</g>
		<g>
			<polygon style="fill:#FFFFFF;" points="87.196,50.014 101.938,100 102.042,100 87.292,49.986 			"/>
		</g>
		<g>
			<polygon style="fill:#FFFFFF;" points="87.196,50.016 103.859,100 103.966,100 87.292,49.984 			"/>
		</g>
		<g>
			<polygon style="fill:#FFFFFF;" points="87.197,50.017 105.826,100 105.934,100 87.291,49.982 			"/>
		</g>
		<g>
			<polygon style="fill:#FFFFFF;" points="87.198,50.019 107.844,100 107.953,100 87.291,49.981 			"/>
		</g>
		<g>
			<polygon style="fill:#FFFFFF;" points="87.206,50.032 129.251,100 129.383,100 87.283,49.967 			"/>
		</g>
		<g>
			<polygon style="fill:#FFFFFF;" points="87.207,50.033 132.322,100 132.458,100 87.281,49.966 			"/>
		</g>
		<g>
			<polygon style="fill:#FFFFFF;" points="87.208,50.034 135.594,100 135.733,100 87.28,49.965 			"/>
		</g>
		<g>
			<polygon style="fill:#FFFFFF;" points="87.21,50.036 139.095,100 139.238,100 87.279,49.964 			"/>
		</g>
		<g>
			<polygon style="fill:#FFFFFF;" points="87.21,50.037 142.855,100 143.005,100 87.278,49.963 			"/>
		</g>
		<g>
			<polygon style="fill:#FFFFFF;" points="87.212,50.038 146.921,100 147.077,100 87.276,49.961 			"/>
		</g>
		<g>
			<polygon style="fill:#FFFFFF;" points="87.213,50.039 151.339,100 151.502,100 87.275,49.96 			"/>
		</g>
		<g>
			<polygon style="fill:#FFFFFF;" points="87.215,50.04 156.171,100 156.34,100 87.274,49.959 			"/>
		</g>
		<g>
			<polygon style="fill:#FFFFFF;" points="87.216,50.041 161.49,100 161.668,100 87.273,49.958 			"/>
		</g>
		<g>
			<polygon style="fill:#FFFFFF;" points="87.218,50.042 167.389,100 167.578,100 87.271,49.958 			"/>
		</g>
		<g>
			<polygon style="fill:#FFFFFF;" points="87.219,50.043 173.987,100 174.188,100 87.27,49.956 			"/>
		</g>
		<g>
			<polygon style="fill:#FFFFFF;" points="87.268,49.956 87.221,50.044 175,96.587 175,96.475 			"/>
		</g>
		<g>
			<polygon style="fill:#FFFFFF;" points="87.267,49.955 87.222,50.044 175,92.738 175,92.628 			"/>
		</g>
		<g>
			<polygon style="fill:#FFFFFF;" points="87.265,49.954 87.224,50.045 175,89.019 175,88.909 			"/>
		</g>
		<g>
			<polygon style="fill:#FFFFFF;" points="87.263,49.954 87.225,50.046 175,85.412 175,85.305 			"/>
		</g>
		<g>
			<polygon style="fill:#FFFFFF;" points="87.262,49.953 87.227,50.046 175,81.906 175,81.801 			"/>
		</g>
		<g>
			<polygon style="fill:#FFFFFF;" points="87.26,49.952 87.229,50.047 175,78.489 175,78.384 			"/>
		</g>
		<g>
			<polygon style="fill:#FFFFFF;" points="87.258,49.952 87.23,50.048 175,75.148 175,75.045 			"/>
		</g>
		<g>
			<polygon style="fill:#FFFFFF;" points="87.257,49.952 87.232,50.048 175,71.873 175,71.771 			"/>
		</g>
		<g>
			<polygon style="fill:#FFFFFF;" points="87.255,49.951 87.234,50.049 175,68.655 175,68.554 			"/>
		</g>
		<g>
			<polygon style="fill:#FFFFFF;" points="87.253,49.95 87.235,50.049 175,65.485 175,65.384 			"/>
		</g>
		<g>
			
				<rect x="81.044" y="25.958" transform="matrix(0.8748 -0.4845 0.4845 0.8748 3.7444 66.5057)" style="fill:#FFFFFF;" width="99.032" height="0.1"/>
		</g>
		<g>
			<polygon style="fill:#FFFFFF;" points="87.27,50.042 170.623,0 170.429,0 87.218,49.957 			"/>
		</g>
		<g>
			<polygon style="fill:#FFFFFF;" points="87.272,50.042 164.396,0 164.215,0 87.217,49.958 			"/>
		</g>
		<g>
			<polygon style="fill:#FFFFFF;" points="87.273,50.041 158.806,0 158.631,0 87.215,49.959 			"/>
		</g>
		<g>
			<polygon style="fill:#FFFFFF;" points="87.275,50.04 153.744,0 153.579,0 87.213,49.96 			"/>
		</g>
		<g>
			<polygon style="fill:#FFFFFF;" points="87.276,50.039 149.132,0 148.973,0 87.212,49.961 			"/>
		</g>
		<g>
			<polygon style="fill:#FFFFFF;" points="87.277,50.038 144.899,0 144.747,0 87.211,49.962 			"/>
		</g>
		<g>
			<polygon style="fill:#FFFFFF;" points="87.279,50.037 140.992,0 140.847,0 87.21,49.963 			"/>
		</g>
		<g>
			<polygon style="fill:#FFFFFF;" points="87.28,50.035 137.368,0 137.227,0 87.209,49.964 			"/>
		</g>
		<g>
			<polygon style="fill:#FFFFFF;" points="87.281,50.034 133.987,0 133.852,0 87.207,49.966 			"/>
		</g>
		<g>
			<polygon style="fill:#FFFFFF;" points="87.283,50.033 130.82,0 130.688,0 87.206,49.967 			"/>
		</g>
		<g>
			<polygon style="fill:#FFFFFF;" points="87.284,50.031 127.84,0 127.711,0 87.205,49.969 			"/>
		</g>
		<g>
			<polygon style="fill:#FFFFFF;" points="87.285,50.03 125.022,0 124.896,0 87.204,49.97 			"/>
		</g>
		<g>
			<polygon style="fill:#FFFFFF;" points="87.286,50.028 122.349,0 122.227,0 87.203,49.971 			"/>
		</g>
		<g>
			<polygon style="fill:#FFFFFF;" points="87.287,50.027 119.803,0 119.685,0 87.202,49.973 			"/>
		</g>
	</g>
	<g style="clip-path:url(#SVGID_00000121964332234397386440000016674598654266147466_);">
		<g>
			<polygon style="fill:#FFFFFF;" points="87.258,50.048 175,26.447 175,26.344 87.23,49.952 			"/>
		</g>
		<g>
			<polygon style="fill:#FFFFFF;" points="87.258,50.048 175,24.801 175,24.697 87.23,49.952 			"/>
		</g>
		<g>
			<polygon style="fill:#FFFFFF;" points="87.259,50.048 175,23.139 175,23.035 87.229,49.952 			"/>
		</g>
		<g>
			<polygon style="fill:#FFFFFF;" points="87.26,50.047 175,21.458 175,21.354 87.229,49.953 			"/>
		</g>
		<g>
			<polygon style="fill:#FFFFFF;" points="87.261,50.047 175,19.758 175,19.653 87.228,49.953 			"/>
		</g>
		<g>
			<polygon style="fill:#FFFFFF;" points="87.262,50.046 175,18.039 175,17.932 87.227,49.953 			"/>
		</g>
		<g>
			<polygon style="fill:#FFFFFF;" points="87.262,50.046 175,16.296 175,16.189 87.226,49.953 			"/>
		</g>
		<g>
			<polygon style="fill:#FFFFFF;" points="87.263,50.046 175,14.529 175,14.421 87.225,49.954 			"/>
		</g>
		<g>
			<polygon style="fill:#FFFFFF;" points="87.264,50.045 175,12.738 175,12.629 87.224,49.954 			"/>
		</g>
		<g>
			<polygon style="fill:#FFFFFF;" points="87.265,50.045 175,10.92 175,10.811 87.224,49.954 			"/>
		</g>
		<g>
			<polygon style="fill:#FFFFFF;" points="87.265,50.045 175,9.073 175,8.963 87.223,49.955 			"/>
		</g>
		<g>
			<polygon style="fill:#FFFFFF;" points="87.267,50.044 175,7.196 175,7.084 87.222,49.955 			"/>
		</g>
		<g>
			<polygon style="fill:#FFFFFF;" points="87.268,50.044 175,5.286 175,5.174 87.221,49.955 			"/>
		</g>
		<g>
			<polygon style="fill:#FFFFFF;" points="87.268,50.044 175,3.342 175,3.229 87.221,49.956 			"/>
		</g>
		<g>
			<polygon style="fill:#FFFFFF;" points="87.269,50.043 175,1.362 175,1.248 87.22,49.956 			"/>
		</g>
		<g>
			<polygon style="fill:#FFFFFF;" points="87.27,50.043 173.862,0 173.663,0 87.219,49.956 			"/>
		</g>
		<g>
			<polygon style="fill:#FFFFFF;" points="87.271,50.042 170.479,0 170.287,0 87.218,49.957 			"/>
		</g>
		<g>
			<polygon style="fill:#FFFFFF;" points="87.202,49.973 55.078,100 55.197,100 87.287,50.027 			"/>
		</g>
		<g>
			<polygon style="fill:#FFFFFF;" points="87.202,49.973 56.299,100 56.417,100 87.287,50.026 			"/>
		</g>
		<g>
			<polygon style="fill:#FFFFFF;" points="87.201,49.975 57.494,100 57.61,100 87.288,50.025 			"/>
		</g>
		<g>
			<polygon style="fill:#FFFFFF;" points="87.201,49.975 58.665,100 58.78,100 87.288,50.025 			"/>
		</g>
		<g>
			<polygon style="fill:#FFFFFF;" points="87.2,49.976 59.813,100 59.926,100 87.289,50.023 			"/>
		</g>
		<g>
			<polygon style="fill:#FFFFFF;" points="87.2,49.977 60.938,100 61.052,100 87.289,50.023 			"/>
		</g>
		<g>
			<polygon style="fill:#FFFFFF;" points="87.2,49.977 62.044,100 62.156,100 87.289,50.022 			"/>
		</g>
		<g>
			<polygon style="fill:#FFFFFF;" points="87.199,49.978 63.13,100 63.242,100 87.29,50.021 			"/>
		</g>
		<g>
			<polygon style="fill:#FFFFFF;" points="87.199,49.979 64.199,100 64.309,100 87.29,50.021 			"/>
		</g>
		<g>
			<polygon style="fill:#FFFFFF;" points="87.198,49.98 65.25,100 65.359,100 87.29,50.02 			"/>
		</g>
		<g>
			<polygon style="fill:#FFFFFF;" points="87.198,49.98 66.286,100 66.394,100 87.291,50.019 			"/>
		</g>
		<g>
			<polygon style="fill:#FFFFFF;" points="87.198,49.981 67.305,100 67.414,100 87.291,50.018 			"/>
		</g>
		<g>
			<polygon style="fill:#FFFFFF;" points="87.198,49.982 68.312,100 68.419,100 87.291,50.017 			"/>
		</g>
		<g>
			<polygon style="fill:#FFFFFF;" points="87.197,49.983 69.305,100 69.412,100 87.291,50.017 			"/>
		</g>
		<g>
			<polygon style="fill:#FFFFFF;" points="87.196,49.983 70.286,100 70.392,100 87.292,50.016 			"/>
		</g>
		<g>
			<polygon style="fill:#FFFFFF;" points="87.196,49.984 71.256,100 71.361,100 87.292,50.015 			"/>
		</g>
		<g>
			<polygon style="fill:#FFFFFF;" points="87.196,49.986 72.214,100 72.318,100 87.292,50.014 			"/>
		</g>
		<g>
			<polygon style="fill:#FFFFFF;" points="87.196,49.986 73.163,100 73.267,100 87.293,50.014 			"/>
		</g>
		<g>
			<polygon style="fill:#FFFFFF;" points="87.195,49.987 74.103,100 74.206,100 87.293,50.012 			"/>
		</g>
		<g>
			<polygon style="fill:#FFFFFF;" points="87.195,49.988 75.033,100 75.136,100 87.293,50.011 			"/>
		</g>
		<g>
			<polygon style="fill:#FFFFFF;" points="87.195,49.989 75.957,100 76.059,100 87.293,50.011 			"/>
		</g>
		<g>
			<polygon style="fill:#FFFFFF;" points="87.195,49.99 76.872,100 76.975,100 87.293,50.01 			"/>
		</g>
		<g>
			<polygon style="fill:#FFFFFF;" points="87.195,49.991 77.782,100 77.884,100 87.294,50.009 			"/>
		</g>
		<g>
			<polygon style="fill:#FFFFFF;" points="87.194,49.992 78.685,100 78.787,100 87.294,50.008 			"/>
		</g>
		<g>
			<polygon style="fill:#FFFFFF;" points="87.194,49.992 79.583,100 79.684,100 87.294,50.007 			"/>
		</g>
		<g>
			<polygon style="fill:#FFFFFF;" points="87.194,49.993 80.477,100 80.577,100 87.294,50.006 			"/>
		</g>
		<g>
			<polygon style="fill:#FFFFFF;" points="87.194,49.994 81.365,100 81.467,100 87.294,50.005 			"/>
		</g>
		<g>
			<polygon style="fill:#FFFFFF;" points="87.194,49.995 82.251,100 82.351,100 87.294,50.005 			"/>
		</g>
		<g>
			<polygon style="fill:#FFFFFF;" points="87.194,49.996 83.133,100 83.233,100 87.294,50.004 			"/>
		</g>
		<g>
			<polygon style="fill:#FFFFFF;" points="87.194,49.997 84.013,100 84.114,100 87.294,50.003 			"/>
		</g>
		<g>
			<polygon style="fill:#FFFFFF;" points="87.194,49.998 84.891,100 84.992,100 87.294,50.002 			"/>
		</g>
		<g>
			<polygon style="fill:#FFFFFF;" points="87.288,49.975 57.917,0 57.801,0 87.201,50.025 			"/>
		</g>
		<g>
			<polygon style="fill:#FFFFFF;" points="87.287,49.974 56.897,0 56.78,0 87.201,50.026 			"/>
		</g>
		<g>
			<polygon style="fill:#FFFFFF;" points="87.287,49.973 55.866,0 55.747,0 87.202,50.026 			"/>
		</g>
		<g>
			<polygon style="fill:#FFFFFF;" points="87.287,49.973 54.822,0 54.703,0 87.202,50.027 			"/>
		</g>
		<g>
			<polygon style="fill:#FFFFFF;" points="87.286,49.972 53.766,0 53.646,0 87.202,50.027 			"/>
		</g>
		<g>
			<polygon style="fill:#FFFFFF;" points="87.286,49.971 52.696,0 52.574,0 87.203,50.028 			"/>
		</g>
		<g>
			<polygon style="fill:#FFFFFF;" points="87.285,49.971 51.611,0 51.489,0 87.204,50.029 			"/>
		</g>
		<g>
			<polygon style="fill:#FFFFFF;" points="87.285,49.97 50.512,0 50.388,0 87.204,50.029 			"/>
		</g>
		<g>
			<polygon style="fill:#FFFFFF;" points="87.285,49.97 49.395,0 49.27,0 87.204,50.03 			"/>
		</g>
		<g>
			<polygon style="fill:#FFFFFF;" points="87.284,49.969 48.262,0 48.135,0 87.205,50.031 			"/>
		</g>
		<g>
			<polygon style="fill:#FFFFFF;" points="87.284,49.969 47.111,0 46.982,0 87.205,50.031 			"/>
		</g>
		<g>
			<polygon style="fill:#FFFFFF;" points="87.283,49.968 45.939,0 45.81,0 87.206,50.032 			"/>
		</g>
		<g>
			<polygon style="fill:#FFFFFF;" points="87.283,49.967 44.747,0 44.616,0 87.206,50.032 			"/>
		</g>
		<g>
			<polygon style="fill:#FFFFFF;" points="87.283,49.967 43.534,0 43.401,0 87.206,50.033 			"/>
		</g>
		<g>
			<polygon style="fill:#FFFFFF;" points="87.281,49.966 42.298,0 42.164,0 87.207,50.033 			"/>
		</g>
		<g>
			<polygon style="fill:#FFFFFF;" points="87.281,49.966 41.037,0 40.901,0 87.207,50.034 			"/>
		</g>
		<g>
			<rect x="87.194" style="fill:#FFFFFF;" width="0.1" height="50"/>
		</g>
		<g>
			<polygon style="fill:#FFFFFF;" points="87.294,49.999 86.419,0 86.319,0 87.194,50 			"/>
		</g>
		<g>
			<polygon style="fill:#FFFFFF;" points="87.294,49.998 85.543,0 85.443,0 87.194,50.002 			"/>
		</g>
		<g>
			
				<rect x="85.88" y="-0.035" transform="matrix(0.9986 -0.0525 0.0525 0.9986 -1.1938 4.5448)" style="fill:#FFFFFF;" width="0.1" height="50.069"/>
		</g>
		<g>
			<polygon style="fill:#FFFFFF;" points="87.294,49.997 83.788,0 83.688,0 87.194,50.003 			"/>
		</g>
		<g>
			<polygon style="fill:#FFFFFF;" points="87.294,49.995 82.907,0 82.807,0 87.194,50.004 			"/>
		</g>
		<g>
			<polygon style="fill:#FFFFFF;" points="87.294,49.995 82.024,0 81.923,0 87.194,50.005 			"/>
		</g>
		<g>
			<polygon style="fill:#FFFFFF;" points="87.294,49.994 81.137,0 81.037,0 87.194,50.006 			"/>
		</g>
		<g>
			<polygon style="fill:#FFFFFF;" points="87.294,49.993 80.248,0 80.146,0 87.194,50.006 			"/>
		</g>
		<g>
			<polygon style="fill:#FFFFFF;" points="87.294,49.992 79.353,0 79.252,0 87.194,50.008 			"/>
		</g>
		<g>
			<polygon style="fill:#FFFFFF;" points="87.294,49.991 78.453,0 78.351,0 87.195,50.009 			"/>
		</g>
		<g>
			<polygon style="fill:#FFFFFF;" points="87.294,49.99 77.548,0 77.446,0 87.195,50.009 			"/>
		</g>
		<g>
			<polygon style="fill:#FFFFFF;" points="87.293,49.989 76.637,0 76.534,0 87.195,50.01 			"/>
		</g>
		<g>
			<polygon style="fill:#FFFFFF;" points="87.293,49.988 75.719,0 75.616,0 87.195,50.011 			"/>
		</g>
		<g>
			<polygon style="fill:#FFFFFF;" points="87.293,49.988 74.794,0 74.69,0 87.195,50.012 			"/>
		</g>
		<g>
			<polygon style="fill:#FFFFFF;" points="87.293,49.987 73.859,0 73.756,0 87.195,50.013 			"/>
		</g>
		<g>
			<polygon style="fill:#FFFFFF;" points="87.271,50.042 167.289,0 167.1,0 87.217,49.958 			"/>
		</g>
		<g>
			<polygon style="fill:#FFFFFF;" points="87.272,50.042 164.27,0 164.086,0 87.217,49.958 			"/>
		</g>
		<g>
			<polygon style="fill:#FFFFFF;" points="87.273,50.041 161.408,0 161.23,0 87.216,49.958 			"/>
		</g>
		<g>
			<polygon style="fill:#FFFFFF;" points="87.273,50.041 158.69,0 158.518,0 87.215,49.959 			"/>
		</g>
		<g>
			<polygon style="fill:#FFFFFF;" points="87.274,50.04 156.105,0 155.936,0 87.215,49.959 			"/>
		</g>
		<g>
			<polygon style="fill:#FFFFFF;" points="87.275,50.04 153.641,0 153.475,0 87.213,49.96 			"/>
		</g>
		<g>
			<polygon style="fill:#FFFFFF;" points="87.275,50.039 151.286,0 151.125,0 87.213,49.96 			"/>
		</g>
		<g>
			<polygon style="fill:#FFFFFF;" points="87.276,50.039 149.035,0 148.878,0 87.212,49.961 			"/>
		</g>
		<g>
			<polygon style="fill:#FFFFFF;" points="87.276,50.038 146.88,0 146.725,0 87.211,49.961 			"/>
		</g>
		<g>
			<polygon style="fill:#FFFFFF;" points="87.277,50.038 144.811,0 144.658,0 87.211,49.962 			"/>
		</g>
		<g>
			<polygon style="fill:#FFFFFF;" points="87.278,50.037 142.824,0 142.674,0 87.21,49.963 			"/>
		</g>
		<g>
			<polygon style="fill:#FFFFFF;" points="87.006,49.939 0,54.7 0,54.822 87.013,50.061 			"/>
		</g>
		<g>
			<polygon style="fill:#FFFFFF;" points="87.006,49.939 0,55.728 0,55.85 87.014,50.061 			"/>
		</g>
		<g>
			<polygon style="fill:#FFFFFF;" points="87.006,49.939 0,56.759 0,56.881 87.014,50.061 			"/>
		</g>
		<g>
			<polygon style="fill:#FFFFFF;" points="87.004,49.939 0,57.794 0,57.915 87.015,50.061 			"/>
		</g>
		<g>
			<polygon style="fill:#FFFFFF;" points="87.003,49.939 0,58.834 0,58.956 87.016,50.061 			"/>
		</g>
		<g>
			<polygon style="fill:#FFFFFF;" points="87.003,49.939 0,59.879 0,60.002 87.017,50.061 			"/>
		</g>
		<g>
			<polygon style="fill:#FFFFFF;" points="87.002,49.939 0,60.931 0,61.054 87.017,50.06 			"/>
		</g>
		<g>
			<polygon style="fill:#FFFFFF;" points="87.002,49.939 0,61.99 0,62.113 87.018,50.06 			"/>
		</g>
		<g>
			<polygon style="fill:#FFFFFF;" points="87.001,49.94 0,63.057 0,63.179 87.019,50.06 			"/>
		</g>
		<g>
			<polygon style="fill:#FFFFFF;" points="87.001,49.94 0,64.132 0,64.254 87.019,50.06 			"/>
		</g>
		<g>
			<polygon style="fill:#FFFFFF;" points="86.999,49.94 0,65.215 0,65.339 87.02,50.06 			"/>
		</g>
		<g>
			<polygon style="fill:#FFFFFF;" points="86.998,49.94 0,66.31 0,66.434 87.021,50.06 			"/>
		</g>
		<g>
			<polygon style="fill:#FFFFFF;" points="86.998,49.94 0,67.414 0,67.537 87.021,50.06 			"/>
		</g>
		<g>
			<polygon style="fill:#FFFFFF;" points="86.997,49.94 0,68.529 0,68.654 87.022,50.06 			"/>
		</g>
		<g>
			<polygon style="fill:#FFFFFF;" points="86.997,49.94 0,69.658 0,69.783 87.023,50.059 			"/>
		</g>
		<g>
			<polygon style="fill:#FFFFFF;" points="86.996,49.941 0,70.801 0,70.926 87.024,50.059 			"/>
		</g>
		<g>
			<polygon style="fill:#FFFFFF;" points="86.995,49.941 0,71.957 0,72.083 87.024,50.059 			"/>
		</g>
		<g>
			<polygon style="fill:#FFFFFF;" points="86.995,49.941 0,73.129 0,73.254 87.025,50.059 			"/>
		</g>
		<g>
			<polygon style="fill:#FFFFFF;" points="0.571,74.157 0.604,74.273 87.026,50.059 86.994,49.941 			"/>
		</g>
		<g>
			
				<rect x="-0.585" y="62.551" transform="matrix(0.9594 -0.2822 0.2822 0.9594 -15.8755 14.9951)" style="fill:#FFFFFF;" width="89.411" height="0.122"/>
		</g>
		<g>
			<polygon style="fill:#FFFFFF;" points="1.881,76.166 1.917,76.282 87.028,50.058 86.992,49.941 			"/>
		</g>
		<g>
			
				<rect x="0.455" y="63.548" transform="matrix(0.9518 -0.3066 0.3066 0.9518 -17.3456 16.8011)" style="fill:#FFFFFF;" width="88.695" height="0.121"/>
		</g>
		<g>
			
				<rect x="1.003" y="64.041" transform="matrix(0.9475 -0.3197 0.3197 0.9475 -18.1245 17.8047)" style="fill:#FFFFFF;" width="88.319" height="0.121"/>
		</g>
		<g>
			<polygon style="fill:#FFFFFF;" points="4.041,79.121 4.082,79.235 87.03,50.057 86.99,49.942 			"/>
		</g>
		<g>
			<polygon style="fill:#FFFFFF;" points="4.812,80.089 4.854,80.202 87.031,50.057 86.989,49.942 			"/>
		</g>
		<g>
			<polygon style="fill:#FFFFFF;" points="5.607,81.047 5.651,81.16 87.031,50.057 86.988,49.943 			"/>
		</g>
		<g>
			<polygon style="fill:#FFFFFF;" points="6.428,81.995 6.473,82.108 87.032,50.056 86.987,49.943 			"/>
		</g>
		<g>
			<polygon style="fill:#FFFFFF;" points="7.272,82.934 7.32,83.047 87.033,50.056 86.986,49.943 			"/>
		</g>
		<g>
			
				<rect x="4.673" y="66.899" transform="matrix(0.9187 -0.395 0.395 0.9187 -22.5775 24.2397)" style="fill:#FFFFFF;" width="85.83" height="0.122"/>
		</g>
		<g>
			
				<rect x="5.345" y="67.358" transform="matrix(0.913 -0.4079 0.4079 0.913 -23.3217 25.4562)" style="fill:#FFFFFF;" width="85.38" height="0.122"/>
		</g>
		<g>
			<polygon style="fill:#FFFFFF;" points="9.952,85.69 10.004,85.8 87.035,50.055 86.984,49.944 			"/>
		</g>
	</g>
	<g style="clip-path:url(#SVGID_00000121964332234397386440000016674598654266147466_);">
		<g>
			<polygon style="fill:#FFFFFF;" points="87.272,49.958 12.823,0 12.644,0 87.216,50.041 			"/>
		</g>
		<g>
			<polygon style="fill:#FFFFFF;" points="87.272,49.958 9.943,0 9.759,0 87.217,50.042 			"/>
		</g>
		<g>
			<polygon style="fill:#FFFFFF;" points="87.271,49.958 6.903,0 6.714,0 87.218,50.042 			"/>
		</g>
		<g>
			<polygon style="fill:#FFFFFF;" points="87.27,49.957 3.689,0 3.494,0 87.218,50.043 			"/>
		</g>
		<g>
			<polygon style="fill:#FFFFFF;" points="87.27,49.956 0.281,0 0.081,0 87.219,50.043 			"/>
		</g>
		<g>
			<polygon style="fill:#FFFFFF;" points="87.269,49.956 0,1.841 0,1.955 87.22,50.043 			"/>
		</g>
		<g>
			<polygon style="fill:#FFFFFF;" points="87.268,49.956 0,3.805 0,3.917 87.221,50.044 			"/>
		</g>
		<g>
			<polygon style="fill:#FFFFFF;" points="87.268,49.955 0,5.733 0,5.845 87.221,50.044 			"/>
		</g>
		<g>
			<polygon style="fill:#FFFFFF;" points="87.267,49.955 0,7.627 0,7.738 87.222,50.044 			"/>
		</g>
		<g>
			<polygon style="fill:#FFFFFF;" points="87.265,49.955 0,9.49 0,9.6 87.223,50.045 			"/>
		</g>
		<g>
			<polygon style="fill:#FFFFFF;" points="87.265,49.954 0,11.322 0,11.431 87.224,50.045 			"/>
		</g>
		<g>
			<polygon style="fill:#FFFFFF;" points="87.264,49.954 0,13.126 0,13.235 87.224,50.046 			"/>
		</g>
		<g>
			<polygon style="fill:#FFFFFF;" points="87.263,49.954 0,14.904 0,15.012 87.225,50.046 			"/>
		</g>
		<g>
			<polygon style="fill:#FFFFFF;" points="87.262,49.953 0,16.657 0,16.764 87.227,50.046 			"/>
		</g>
		<g>
			<polygon style="fill:#FFFFFF;" points="87.262,49.953 0,18.387 0,18.492 87.227,50.046 			"/>
		</g>
		<g>
			<polygon style="fill:#FFFFFF;" points="87.261,49.953 0,20.094 0,20.2 87.228,50.047 			"/>
		</g>
		<g>
			<polygon style="fill:#FFFFFF;" points="87.26,49.952 0,21.782 0,21.887 87.229,50.047 			"/>
		</g>
		<g>
			<polygon style="fill:#FFFFFF;" points="87.234,49.951 87.254,50.049 170.165,33.779 170.145,33.682 			"/>
		</g>
		<g>
			
				<rect x="86.254" y="40.847" transform="matrix(0.9755 -0.2199 0.2199 0.9755 -5.8457 29.2766)" style="fill:#FFFFFF;" width="84.668" height="0.1"/>
		</g>
		<g>
			<polygon style="fill:#FFFFFF;" points="87.232,49.951 87.256,50.048 169.692,29.912 169.668,29.815 			"/>
		</g>
		<g>
			<polygon style="fill:#FFFFFF;" points="87.23,49.952 87.257,50.048 169.418,27.987 169.393,27.891 			"/>
		</g>
		<g>
			<polygon style="fill:#FFFFFF;" points="87.229,49.952 87.259,50.048 169.119,26.069 169.091,25.973 			"/>
		</g>
		<g>
			
				<rect x="85.239" y="37.005" transform="matrix(0.9491 -0.315 0.315 0.9491 -5.1553 42.2158)" style="fill:#FFFFFF;" width="85.548" height="0.1"/>
		</g>
		<g>
			
				<rect x="84.932" y="36.054" transform="matrix(0.9422 -0.335 0.335 0.9422 -4.7086 44.9049)" style="fill:#FFFFFF;" width="85.812" height="0.1"/>
		</g>
		<g>
			<polygon style="fill:#FFFFFF;" points="87.227,49.953 87.262,50.046 168.074,20.36 168.039,20.266 			"/>
		</g>
		<g>
			<polygon style="fill:#FFFFFF;" points="87.225,49.953 87.263,50.046 167.676,18.475 167.641,18.382 			"/>
		</g>
		<g>
			<polygon style="fill:#FFFFFF;" points="87.225,49.954 87.264,50.046 167.255,16.599 167.216,16.507 			"/>
		</g>
		<g>
			<polygon style="fill:#FFFFFF;" points="87.224,49.954 87.265,50.045 166.808,14.733 166.767,14.642 			"/>
		</g>
		<g>
			<polygon style="fill:#FFFFFF;" points="87.223,49.955 87.266,50.045 166.336,12.878 166.294,12.788 			"/>
		</g>
		<g>
			
				<rect x="82.669" y="30.445" transform="matrix(0.8954 -0.4452 0.4452 0.8954 -0.3447 59.5218)" style="fill:#FFFFFF;" width="87.726" height="0.1"/>
		</g>
		<g>
			
				<rect x="82.225" y="29.529" transform="matrix(0.8863 -0.4631 0.4631 0.8863 0.6588 61.8409)" style="fill:#FFFFFF;" width="88.093" height="0.1"/>
		</g>
		<g>
			<polygon style="fill:#FFFFFF;" points="87.22,49.956 87.269,50.043 164.778,7.383 164.73,7.295 			"/>
		</g>
		<g>
			<polygon style="fill:#FFFFFF;" points="87.219,49.956 87.27,50.043 164.213,5.576 164.162,5.49 			"/>
		</g>
		<g>
			<polygon style="fill:#FFFFFF;" points="87.218,49.957 87.271,50.042 163.623,3.783 163.57,3.698 			"/>
		</g>
		<g>
			<polygon style="fill:#FFFFFF;" points="87.217,49.958 87.271,50.042 163.008,2.004 162.956,1.92 			"/>
		</g>
		<g>
			<polygon style="fill:#FFFFFF;" points="87.216,49.958 87.272,50.041 162.372,0.241 162.316,0.157 			"/>
		</g>
		<g>
			<polygon style="fill:#FFFFFF;" points="87.273,50.041 159.534,0 159.358,0 87.216,49.959 			"/>
		</g>
		<g>
			<polygon style="fill:#FFFFFF;" points="87.274,50.04 156.543,0 156.372,0 87.215,49.959 			"/>
		</g>
		<g>
			<polygon style="fill:#FFFFFF;" points="87.275,50.04 153.738,0 153.574,0 87.213,49.96 			"/>
		</g>
		<g>
			<polygon style="fill:#FFFFFF;" points="87.275,50.039 151.104,0 150.942,0 87.213,49.96 			"/>
		</g>
		<g>
			<polygon style="fill:#FFFFFF;" points="87.276,50.039 148.622,0 148.465,0 87.212,49.961 			"/>
		</g>
		<g>
			<polygon style="fill:#FFFFFF;" points="87.277,50.038 146.278,0 146.125,0 87.211,49.961 			"/>
		</g>
		<g>
			<polygon style="fill:#FFFFFF;" points="87.278,50.038 144.061,0 143.911,0 87.211,49.962 			"/>
		</g>
		<g>
			<polygon style="fill:#FFFFFF;" points="87.278,50.037 141.957,0 141.811,0 87.21,49.963 			"/>
		</g>
		<g>
			<polygon style="fill:#FFFFFF;" points="87.279,50.036 139.959,0 139.814,0 87.21,49.964 			"/>
		</g>
		<g>
			<polygon style="fill:#FFFFFF;" points="87.28,50.035 138.058,0 137.914,0 87.209,49.964 			"/>
		</g>
		<g>
			<polygon style="fill:#FFFFFF;" points="87.28,50.035 136.243,0 136.104,0 87.208,49.965 			"/>
		</g>
		<g>
			<polygon style="fill:#FFFFFF;" points="87.281,50.034 134.511,0 134.374,0 87.207,49.965 			"/>
		</g>
		<g>
			<polygon style="fill:#FFFFFF;" points="37.765,92.764 37.831,92.838 87.277,50.038 87.211,49.962 			"/>
		</g>
		<g>
			<polygon style="fill:#FFFFFF;" points="38.521,93.617 38.588,93.692 87.278,50.037 87.21,49.963 			"/>
		</g>
		<g>
			<polygon style="fill:#FFFFFF;" points="39.292,94.459 39.36,94.531 87.279,50.037 87.21,49.963 			"/>
		</g>
		<g>
			
				<rect x="30.984" y="72.611" transform="matrix(0.7214 -0.6925 0.6925 0.7214 -32.5781 64.3379)" style="fill:#FFFFFF;" width="65.388" height="0.1"/>
		</g>
		<g>
			<polygon style="fill:#FFFFFF;" points="40.876,96.101 40.948,96.17 87.28,50.035 87.209,49.964 			"/>
		</g>
		<g>
			<polygon style="fill:#FFFFFF;" points="41.691,96.899 41.763,96.969 87.28,50.034 87.208,49.965 			"/>
		</g>
		<g>
			<polygon style="fill:#FFFFFF;" points="42.519,97.686 42.592,97.754 87.281,50.034 87.207,49.965 			"/>
		</g>
		<g>
			<polygon style="fill:#FFFFFF;" points="43.36,98.457 43.435,98.523 87.281,50.033 87.207,49.966 			"/>
		</g>
		<g>
			<polygon style="fill:#FFFFFF;" points="44.215,99.212 44.291,99.278 87.283,50.033 87.206,49.967 			"/>
		</g>
		<g>
			<polygon style="fill:#FFFFFF;" points="45.16,100.019 45.175,100 45.138,100 			"/>
			<polygon style="fill:#FFFFFF;" points="87.206,49.967 45.083,99.954 45.138,100 45.175,100 87.283,50.032 			"/>
		</g>
		<g>
			<polygon style="fill:#FFFFFF;" points="87.205,49.969 46.518,100 46.646,100 87.284,50.031 			"/>
		</g>
		<g>
			<polygon style="fill:#FFFFFF;" points="87.205,49.969 47.949,100 48.075,100 87.284,50.031 			"/>
		</g>
		<g>
			<polygon style="fill:#FFFFFF;" points="87.204,49.97 49.342,100 49.467,100 87.285,50.03 			"/>
		</g>
		<g>
			<polygon style="fill:#FFFFFF;" points="87.204,49.97 50.698,100 50.822,100 87.285,50.029 			"/>
		</g>
		<g>
			<polygon style="fill:#FFFFFF;" points="87.203,49.971 52.021,100 52.143,100 87.286,50.028 			"/>
		</g>
		<g>
			<polygon style="fill:#FFFFFF;" points="87.203,49.972 53.312,100 53.432,100 87.286,50.028 			"/>
		</g>
		<g>
			<polygon style="fill:#FFFFFF;" points="87.259,49.952 0,23.45 0,23.555 87.229,50.048 			"/>
		</g>
		<g>
			<polygon style="fill:#FFFFFF;" points="87.258,49.952 0,25.101 0,25.205 87.23,50.048 			"/>
		</g>
		<g>
			<polygon style="fill:#FFFFFF;" points="87.257,49.952 0,26.735 0,26.838 87.231,50.048 			"/>
		</g>
		<g>
			<polygon style="fill:#FFFFFF;" points="87.257,49.952 0,28.354 0,28.457 87.232,50.048 			"/>
		</g>
		<g>
			<polygon style="fill:#FFFFFF;" points="87.256,49.951 0,29.959 0,30.062 87.233,50.049 			"/>
		</g>
		<g>
			<polygon style="fill:#FFFFFF;" points="87.255,49.951 0,31.552 0,31.654 87.234,50.049 			"/>
		</g>
		<g>
			<polygon style="fill:#FFFFFF;" points="87.253,49.951 0,33.132 0,33.234 87.234,50.049 			"/>
		</g>
		<g>
			<polygon style="fill:#FFFFFF;" points="87.253,49.95 0,34.703 0,34.804 87.235,50.049 			"/>
		</g>
		<g>
			<polygon style="fill:#FFFFFF;" points="87.252,49.95 0,36.263 0,36.364 87.236,50.049 			"/>
		</g>
		<g>
			<polygon style="fill:#FFFFFF;" points="87.252,49.95 0,37.815 0,37.916 87.237,50.049 			"/>
		</g>
		<g>
			<polygon style="fill:#FFFFFF;" points="87.25,49.95 0,39.359 0,39.459 87.238,50.049 			"/>
		</g>
	</g>
	<g style="clip-path:url(#SVGID_00000121964332234397386440000016674598654266147466_);">
		<g>
			<polygon style="fill:#FFFFFF;" points="22.986,83.852 23.127,84.116 87.314,50.132 87.174,49.868 			"/>
		</g>
		<g>
			<polygon style="fill:#FFFFFF;" points="53.077,91.042 53.309,91.232 87.36,50.095 87.128,49.905 			"/>
		</g>
		<g>
			<polygon style="fill:#FFFFFF;" points="87.1,49.961 73.969,100 74.28,100 87.389,50.038 			"/>
		</g>
		<g>
			<polygon style="fill:#FFFFFF;" points="87.097,50.022 94.671,100 94.975,100 87.392,49.977 			"/>
		</g>
		<g>
			<polygon style="fill:#FFFFFF;" points="87.136,50.102 112.459,76.871 112.678,76.666 87.353,49.897 			"/>
		</g>
		<g>
			
				<rect x="87.243" y="49.68" transform="matrix(1 -0.0097 0.0097 1 -0.4786 1.0233)" style="fill:#FFFFFF;" width="35.917" height="0.299"/>
		</g>
		<g>
			<polygon style="fill:#FFFFFF;" points="87.169,49.871 87.32,50.128 168.444,2.608 168.294,2.351 			"/>
		</g>
		<g>
			
				<rect x="73.745" y="25.627" transform="matrix(0.5261 -0.8504 0.8504 0.5261 26.5231 99.1504)" style="fill:#FFFFFF;" width="56.967" height="0.299"/>
		</g>
		<g>
			
				<rect x="85.822" y="16.338" transform="matrix(0.9971 -0.0755 0.0755 0.9971 -2.2601 6.5838)" style="fill:#FFFFFF;" width="0.3" height="33.71"/>
		</g>
		<g>
			
				<rect x="82.375" y="12.581" transform="matrix(0.9687 -0.2483 0.2483 0.9687 -5.2586 21.4783)" style="fill:#FFFFFF;" width="0.3" height="38.014"/>
		</g>
		<g>
			<polygon style="fill:#FFFFFF;" points="87.393,50.014 92.22,0 91.919,0 87.095,49.986 			"/>
		</g>
	</g>
	
		<radialGradient id="SVGID_00000076575544376792038970000016048130788236650678_" cx="86.9767" cy="50" r="59.7489" gradientTransform="matrix(1.0029 0 0 1 -0.2191 0)" gradientUnits="userSpaceOnUse">
		<stop  offset="0" style="stop-color:#FFFFFF"/>
		<stop  offset="0.5857" style="stop-color:#FFFFFF;stop-opacity:0"/>
	</radialGradient>
	
		<path style="opacity:0.6;clip-path:url(#SVGID_00000121964332234397386440000016674598654266147466_);fill:url(#SVGID_00000076575544376792038970000016048130788236650678_);" d="
		M87.009,14.972c-27.114,0-49.095,15.682-49.095,35.028c0,19.346,21.981,35.028,49.095,35.028c27.116,0,49.096-15.683,49.096-35.028
		C136.105,30.654,114.125,14.972,87.009,14.972z"/>
	
		<radialGradient id="SVGID_00000062885296864548307510000015917955895432243091_" cx="87.4654" cy="50" r="146.7074" gradientTransform="matrix(1.0029 0 0 0.6823 -0.2191 15.8827)" gradientUnits="userSpaceOnUse">
		<stop  offset="0.3212" style="stop-color:#FFFFFF"/>
		<stop  offset="1" style="stop-color:#000000"/>
	</radialGradient>
	
		<rect style="clip-path:url(#SVGID_00000121964332234397386440000016674598654266147466_);fill:url(#SVGID_00000062885296864548307510000015917955895432243091_);" width="175" height="100"/>
</g>
</svg>
